<?xml version="1.0" encoding="UTF-8"?>
<svg width="18px" height="14px" viewBox="0 0 18 14" version="1.1" xmlns="http://www.w3.org/2000/svg" xmlns:xlink="http://www.w3.org/1999/xlink">
    <!-- Generator: sketchtool 54.1 (76490) - https://sketchapp.com -->
    <title>12B4603D-56CE-4D16-996A-946BA3FF4435</title>
    <desc>Created with sketchtool.</desc>
    <g id="Test-Screens" stroke="none" stroke-width="1" fill="none" fill-rule="evenodd">
        <g id="Mobile-–-HP" transform="translate(-287.000000, -23.000000)" fill="#F6F3E9">
            <g id="TOP">
                <g id="burger" transform="translate(242.000000, 23.000000)">
                    <path d="M63,1.0002727 C63,1.55258613 62.3533139,2 61.5547445,2 L46.4452555,2 C45.6466861,2 45,1.55258613 45,1.0002727 C45,0.447959276 45.6466861,-2.66255192e-14 46.4452555,-2.64788244e-14 L61.5547445,-2.37032563e-14 C62.3533139,-2.35565615e-14 63,0.447959276 63,1.0002727 Z M63,13.0002727 C63,13.5525861 62.3533139,14 61.5547445,14 L46.4452555,14 C45.6466861,14 45,13.5525861 45,13.0002727 C45,12.4479593 45.6466861,12 46.4452555,12 L61.5547445,12 C62.3533139,12 63,12.4479593 63,13.0002727 Z M63,7.0002727 C63,7.55258613 62.4970219,8 61.8759124,8 L50.1240876,8 C49.5029781,8 49,7.55258613 49,7.0002727 C49,6.44795928 49.5029781,6 50.1240876,6 L61.8759124,6 C62.4970219,6 63,6.44795928 63,7.0002727 Z"></path>
                </g>
            </g>
        </g>
    </g>
</svg>