<?xml version="1.0" standalone="no"?>
<!DOCTYPE svg PUBLIC "-//W3C//DTD SVG 20010904//EN"
 "http://www.w3.org/TR/2001/REC-SVG-20010904/DTD/svg10.dtd">
<svg version="1.0" xmlns="http://www.w3.org/2000/svg"
 width="200.000000pt" height="200.000000pt" viewBox="0 0 200.000000 200.000000"
 preserveAspectRatio="xMidYMid meet">
<metadata>
Created by potrace 1.11, written by Peter Selinger 2001-2013
</metadata>
<g transform="translate(0.000000,200.000000) scale(0.100000,-0.100000)"
fill="#000000" stroke="none">
<path d="M957 1903 c-32 -72 -68 -177 -83 -242 -17 -74 -11 -267 8 -287 3 -2
22 5 43 16 50 26 111 25 153 0 18 -11 37 -18 42 -15 20 12 28 146 16 240 -14
105 -110 365 -134 365 -5 0 -25 -35 -45 -77z"/>
<path d="M211 1236 c-14 -16 -14 -796 0 -892 20 -139 77 -227 183 -281 102
-52 169 -58 641 -58 396 0 454 5 550 51 114 53 186 153 204 284 14 100 14 879
0 896 -16 19 -341 20 -357 1 -7 -8 -12 -151 -14 -412 -3 -365 -5 -403 -21
-437 -23 -46 -79 -74 -162 -83 -76 -8 -405 -8 -470 0 -71 8 -136 43 -160 85
-19 33 -20 55 -23 435 -2 258 -7 404 -14 412 -16 19 -341 18 -357 -1z"/>
</g>
</svg>
