<?xml version="1.0" encoding="UTF-8"?>
<svg width="24px" height="24px" viewBox="0 0 24 24" version="1.1" xmlns="http://www.w3.org/2000/svg" xmlns:xlink="http://www.w3.org/1999/xlink">
    <!-- Generator: Sketch 47.1 (45422) - http://www.bohemiancoding.com/sketch -->
    <title>bag</title>
    <desc>Created with Sketch.</desc>
    <defs></defs>
    <g id="––-Desktop-:-1920px" stroke="none" stroke-width="1" fill="none" fill-rule="evenodd">
        <g id="Home" transform="translate(-1773.000000, -33.000000)" fill-rule="nonzero" fill="#FFFFFF">
            <g id="TOP">
                <g id="shop" transform="translate(1733.000000, 0.000000)">
                    <g id="bag" transform="translate(40.000000, 33.000000)">
                        <path d="M21.5,20 L2.5,20 C2.224,20 2,19.776 2,19.5 C2,19.224 2.224,19 2.5,19 L21.5,19 C21.776,19 22,19.224 22,19.5 C22,19.776 21.776,20 21.5,20 Z" id="Shape"></path>
                        <path d="M18.5,10 C18.224,10 18,9.776 18,9.5 L18,3.5 C18,2.122 16.879,1 15.5,1 L8.5,1 C7.121,1 6,2.122 6,3.5 L6,9.5 C6,9.776 5.776,10 5.5,10 C5.224,10 5,9.776 5,9.5 L5,3.5 C5,1.57 6.57,0 8.5,0 L15.5,0 C17.43,0 19,1.57 19,3.5 L19,9.5 C19,9.776 18.776,10 18.5,10 Z" id="Shape"></path>
                        <path d="M16.5,7 L7.5,7 C7.224,7 7,6.776 7,6.5 C7,6.224 7.224,6 7.5,6 L16.5,6 C16.776,6 17,6.224 17,6.5 C17,6.776 16.776,7 16.5,7 Z" id="Shape"></path>
                        <path d="M23.5,24 L0.5,24 C0.224,24 0,23.776 0,23.5 L0,6.5 C0,6.224 0.224,6 0.5,6 L3.5,6 C3.776,6 4,6.224 4,6.5 C4,6.776 3.776,7 3.5,7 L1,7 L1,23 L23,23 L23,7 L20.5,7 C20.224,7 20,6.776 20,6.5 C20,6.224 20.224,6 20.5,6 L23.5,6 C23.776,6 24,6.224 24,6.5 L24,23.5 C24,23.776 23.776,24 23.5,24 Z" id="Shape"></path>
                    </g>
                </g>
            </g>
        </g>
    </g>
</svg>