<?xml version="1.0" encoding="UTF-8"?>
<svg width="32px" height="32px" viewBox="0 0 32 32" version="1.1" xmlns="http://www.w3.org/2000/svg" xmlns:xlink="http://www.w3.org/1999/xlink">
    <!-- Generator: Sketch 47.1 (45422) - http://www.bohemiancoding.com/sketch -->
    <title>ig</title>
    <desc>Created with Sketch.</desc>
    <defs></defs>
    <g id="Symbols" stroke="none" stroke-width="1" fill="none" fill-rule="evenodd">
        <g id="footer" transform="translate(-1525.000000, -162.000000)" fill-rule="nonzero" fill="#AE9A91">
            <g id="FOOT">
                <g id="soc" transform="translate(1525.000000, 110.000000)">
                    <path d="M16.000032,52 C11.6546607,52 11.1097907,52.0184187 9.40322067,52.0962847 C7.70020733,52.1739593 6.53711,52.444458 5.519392,52.8400113 C4.46725067,53.2488387 3.57496933,53.7959313 2.68541867,54.6854187 C1.79593133,55.5749693 1.24883867,56.4672507 0.840011333,57.519392 C0.444458,58.53711 0.173959333,59.7002073 0.0962846667,61.4032207 C0.0184186667,63.1097907 0,63.6546607 0,68.000032 C0,72.3453393 0.0184186667,72.8902093 0.0962846667,74.5967793 C0.173959333,76.2997927 0.444458,77.46289 0.840011333,78.480608 C1.24883867,79.5327493 1.79593133,80.4250307 2.68541867,81.3145813 C3.57496933,82.2040687 4.46725067,82.7511613 5.519392,83.1600527 C6.53711,83.555542 7.70020733,83.8260407 9.40322067,83.9037153 C11.1097907,83.9815813 11.6546607,84 16.000032,84 C20.3453393,84 20.8902093,83.9815813 22.5967793,83.9037153 C24.2997927,83.8260407 25.46289,83.555542 26.480608,83.1600527 C27.5327493,82.7511613 28.4250307,82.2040687 29.3145813,81.3145813 C30.2040687,80.4250307 30.7511613,79.5327493 31.1600527,78.480608 C31.555542,77.46289 31.8260407,76.2997927 31.9037153,74.5967793 C31.9815813,72.8902093 32,72.3453393 32,68.000032 C32,63.6546607 31.9815813,63.1097907 31.9037153,61.4032207 C31.8260407,59.7002073 31.555542,58.53711 31.1600527,57.519392 C30.7511613,56.4672507 30.2040687,55.5749693 29.3145813,54.6854187 C28.4250307,53.7959313 27.5327493,53.2488387 26.480608,52.8400113 C25.46289,52.444458 24.2997927,52.1739593 22.5967793,52.0962847 C20.8902093,52.0184187 20.3453393,52 16.000032,52 Z M16.0000317,55 C20.2340274,55 20.7355727,55.0161769 22.4076444,55.0924663 C23.9536994,55.1629645 24.7933229,55.4212904 25.3520855,55.6384506 C26.0922557,55.9261097 26.6204906,56.2697265 27.1753503,56.8246497 C27.7302735,57.3795094 28.0738903,57.9077443 28.3615494,58.6479145 C28.5787096,59.2066771 28.8370355,60.0463006 28.9075337,61.5923556 C28.9838231,63.2644273 29,63.7659726 29,68.0000317 C29,72.2340274 28.9838231,72.7355727 28.9075337,74.4076444 C28.8370355,75.9536994 28.5787096,76.7933229 28.3615494,77.3520855 C28.0738903,78.0922557 27.7302735,78.6204906 27.1753503,79.1753503 C26.6204906,79.7302735 26.0922557,80.0738903 25.3520855,80.3615494 C24.7933229,80.5787096 23.9536994,80.8370355 22.4076444,80.9075337 C20.7358245,80.9838231 20.2343419,81 16.0000317,81 C11.7656581,81 11.2642383,80.9838231 9.5923556,80.9075337 C8.0463006,80.8370355 7.20667709,80.5787096 6.64791453,80.3615494 C5.90774435,80.0738903 5.37950942,79.7302735 4.8246497,79.1753503 C4.26978931,78.6204906 3.92610966,78.0922557 3.63845062,77.3520855 C3.42129043,76.7933229 3.16296446,75.9536994 3.09246627,74.4076444 C3.01617692,72.7355727 3,72.2340274 3,68.0000317 C3,63.7659726 3.01617692,63.2644273 3.09246627,61.5923556 C3.16296446,60.0463006 3.42129043,59.2066771 3.63845062,58.6479145 C3.92610966,57.9077443 4.26972655,57.3795094 4.8246497,56.8246497 C5.37950942,56.2697265 5.90774435,55.9261097 6.64791453,55.6384506 C7.20667709,55.4212904 8.0463006,55.1629645 9.5923556,55.0924663 C11.2644273,55.0161769 11.7659726,55 16.0000317,55 Z M16.0000312,60 C11.5816937,60 8,63.5816937 8,68.0000312 C8,72.4183063 11.5816937,76 16.0000312,76 C20.4183063,76 24,72.4183063 24,68.0000312 C24,63.5816937 20.4183063,60 16.0000312,60 Z M16.00003,73 C13.2385631,73 11,70.7614369 11,68.00003 C11,65.2385631 13.2385631,63 16.00003,63 C18.7614369,63 21,65.2385631 21,68.00003 C21,70.7614369 18.7614369,73 16.00003,73 Z M26,60.0000333 C26,61.104613 25.1045464,62 23.9999667,62 C22.8954529,62 22,61.104613 22,60.0000333 C22,58.8954536 22.8954529,58 23.9999667,58 C25.1045464,58 26,58.8954536 26,60.0000333 Z" id="ig"></path>
                </g>
            </g>
        </g>
    </g>
</svg>