<?xml version="1.0" encoding="UTF-8"?>
<svg width="24px" height="20px" viewBox="0 0 24 20" version="1.1" xmlns="http://www.w3.org/2000/svg" xmlns:xlink="http://www.w3.org/1999/xlink">
    <!-- Generator: Sketch 47.1 (45422) - http://www.bohemiancoding.com/sketch -->
    <title>left</title>
    <desc>Created with Sketch.</desc>
    <defs></defs>
    <g id="––-Desktop-:-1920px" stroke="none" stroke-width="1" fill="none" fill-rule="evenodd">
        <g id="Home" transform="translate(-315.000000, -1403.000000)" fill-rule="nonzero" fill="#8ACBC1">
            <g id="CONTENT">
                <g id="kolekce" transform="translate(0.000000, 760.000000)">
                    <g id="cards" transform="translate(315.000000, 226.000000)">
                        <g id="left" transform="translate(0.000000, 417.000000)">
                            <path d="M9.5,19.5 C9.372,19.5 9.244,19.451 9.146,19.354 L0.146,10.354 C-0.049,10.159 -0.049,9.842 0.146,9.647 L9.146,0.647 C9.341,0.452 9.658,0.452 9.853,0.647 C10.048,0.842 10.048,1.159 9.853,1.354 L1.207,10 L9.853,18.646 C10.048,18.841 10.048,19.158 9.853,19.353 C9.756,19.451 9.628,19.5 9.5,19.5 Z" id="Shape"></path>
                            <path d="M23.5,10.5 L0.5,10.5 C0.224,10.5 0,10.276 0,10 C0,9.724 0.224,9.5 0.5,9.5 L23.5,9.5 C23.776,9.5 24,9.724 24,10 C24,10.276 23.776,10.5 23.5,10.5 Z" id="Shape"></path>
                        </g>
                    </g>
                </g>
            </g>
        </g>
    </g>
</svg>