<?xml version="1.0" encoding="UTF-8"?>
<svg width="24px" height="20px" viewBox="0 0 24 20" version="1.1" xmlns="http://www.w3.org/2000/svg" xmlns:xlink="http://www.w3.org/1999/xlink">
    <!-- Generator: Sketch 47.1 (45422) - http://www.bohemiancoding.com/sketch -->
    <title>right</title>
    <desc>Created with Sketch.</desc>
    <defs></defs>
    <g id="––-Desktop-:-1920px" stroke="none" stroke-width="1" fill="none" fill-rule="evenodd">
        <g id="Home" transform="translate(-1581.000000, -1403.000000)" fill-rule="nonzero" fill="#8ACBC1">
            <g id="CONTENT">
                <g id="kolekce" transform="translate(0.000000, 760.000000)">
                    <g id="cards" transform="translate(315.000000, 226.000000)">
                        <g id="right" transform="translate(1266.000000, 417.000000)">
                            <path d="M14.5,19.5 C14.372,19.5 14.244,19.451 14.146,19.354 C13.951,19.159 13.951,18.842 14.146,18.647 L22.793,10 L14.147,1.354 C13.952,1.159 13.952,0.842 14.147,0.647 C14.342,0.452 14.659,0.452 14.854,0.647 L23.854,9.647 C24.049,9.842 24.049,10.159 23.854,10.354 L14.854,19.354 C14.756,19.451 14.628,19.5 14.5,19.5 Z" id="Shape"></path>
                            <path d="M23.5,10.5 L0.5,10.5 C0.224,10.5 0,10.276 0,10 C0,9.724 0.224,9.5 0.5,9.5 L23.5,9.5 C23.776,9.5 24,9.724 24,10 C24,10.276 23.776,10.5 23.5,10.5 Z" id="Shape"></path>
                        </g>
                    </g>
                </g>
            </g>
        </g>
    </g>
</svg>