<?xml version="1.0" encoding="UTF-8"?>
<svg width="160px" height="25px" viewBox="0 0 160 25" version="1.1" xmlns="http://www.w3.org/2000/svg" xmlns:xlink="http://www.w3.org/1999/xlink">
    <!-- Generator: Sketch 47.1 (45422) - http://www.bohemiancoding.com/sketch -->
    <title>unipar</title>
    <desc>Created with Sketch.</desc>
    <defs></defs>
    <g id="––-Desktop-:-1920px" stroke="none" stroke-width="1" fill="none" fill-rule="evenodd">
        <g id="Home" transform="translate(-30.000000, -33.000000)" fill="#FFFFFF">
            <g id="TOP">
                <g id="unipar" transform="translate(30.000000, 33.000000)">
                    <path d="M25.0957902,0 C24.0449293,0 23.1926181,0.864077244 23.1926181,1.93109502 L23.1926181,16.7331139 C23.1926181,18.7614659 22.7131931,19.33623 22.1943348,19.6564406 C21.2385979,20.2736888 19.1289203,20.4713627 13.5003459,20.4713627 C7.87107974,20.4713627 5.76001845,20.2736888 4.81362099,19.6627606 C4.31413344,19.3425499 3.80634416,18.7453149 3.80634416,16.7331139 L3.80634416,1.93109502 C3.80634416,0.864077244 2.954033,0 1.90213437,0 C0.853348878,0 0,0.864077244 0,1.93109502 L0,16.0337064 C0,19.5233706 0.171223224,20.5802063 1.44726863,21.9161729 C3.04223891,23.5702436 5.51996003,24 13.5003459,24 C18.4305371,24 21.1950138,23.8226904 22.7488214,23.4118938 C24.8668008,22.8557384 26.1162114,21.7887206 26.6734652,20.0514373 C26.9360075,19.1792846 27,18.3921001 27,16.0337064 L27,1.93109502 C27,0.864077244 26.1445757,0 25.0957902,0" id="Fill-4"></path>
                    <path d="M59.0794656,0 C58.020065,0 57.1589312,0.862248175 57.1589312,1.9270073 L57.1589312,19.8141898 L37.7225084,0.91340146 C37.3727492,0.552175182 36.8861579,0.327591241 36.3451131,0.327591241 L33.9212325,0.327591241 C32.8607848,0.327591241 32,1.19054015 32,2.256 L32,22.0729927 C32,23.1377518 32.8607848,24 33.9212325,24 C34.9809822,24 35.8400217,23.1377518 35.8400217,22.0729927 L35.8400217,4.23030657 L55.2802841,23.1300438 C55.6289961,23.4909197 56.1176818,23.7172555 56.6597737,23.7172555 L59.0815599,23.7172555 C60.1409605,23.7172555 61,22.8525547 61,21.7888467 L61,1.9270073 C61,0.862248175 60.1409605,0 59.0794656,0" id="Fill-6"></path>
                    <path d="M68.0005454,0 C66.8959186,0 66,0.862248175 66,1.9270073 L66,22.0729927 C66,23.1377518 66.8959186,24 68.0005454,24 C69.1051723,24 70,23.1377518 70,22.0729927 L70,1.9270073 C70,0.862248175 69.1051723,0 68.0005454,0" id="Fill-7"></path>
                    <path d="M150.899938,12.3025383 C150.899938,12.3025383 137.96134,12.3025383 136.86276,12.3025383 C136.86276,11.3235699 136.86276,5.44869385 136.86276,4.47185673 C137.96134,4.47185673 150.734571,4.47185673 150.734571,4.47185673 C155.342709,4.47185673 156.036475,5.34674758 156.036475,8.35220898 C156.036475,11.4596167 155.398884,12.3025383 150.899938,12.3025383 Z M160,8.48754533 C160,5.95380744 159.527776,4.1685044 158.554537,3.03217642 C157.258641,1.53175461 155.52563,1 151.933916,1 L134.931029,1 C133.864048,1 133,1.87489085 133,2.95509509 L133,23.0463258 C133,24.1258196 133.864048,25 134.931029,25 C135.997308,25 136.86276,24.1258196 136.86276,23.0463258 C136.86276,23.0463258 136.86276,16.6890698 136.86276,15.636217 C137.964149,15.636217 151.53472,15.636217 151.53472,15.636217 C153.788055,15.636217 154.45584,15.8969437 155.023914,16.4478798 C155.448389,16.9000666 155.704689,17.6069415 155.704689,19.8238289 L155.704689,23.0463258 C155.704689,24.1258196 156.569439,25 157.63642,25 C158.704104,25 159.568152,24.1258196 159.568152,23.0463258 L159.568152,18.2711907 C159.568152,16.3228447 158.918624,15.0511803 157.529336,14.268645 C157.436998,14.2132317 157.344308,14.1734478 157.253726,14.1258492 C157.478778,14.0377562 157.694702,13.9336787 157.921159,13.8086435 C159.345908,12.9706949 160,11.2820099 160,8.48754533 L160,8.48754533 Z" id="Fill-10"></path>
                    <path d="M91.9085227,12.4037741 C91.9085227,12.4037741 79.8830171,12.4037741 78.8053166,12.4037741 C78.8053166,11.4212536 78.8053166,5.45295641 78.8053166,4.47185673 C79.8864746,4.47185673 92.4347531,4.47185673 92.4347531,4.47185673 C96.5187436,4.47185673 97.1002939,5.31264708 97.1002939,8.42005476 C97.1002939,11.5967291 96.5896222,12.4037741 91.9085227,12.4037741 Z M101,8.25026271 C101,5.36557389 100.585447,3.80156886 99.5233048,2.67021387 C98.3380763,1.37688152 96.9288022,1 93.2538332,1 L76.9023125,1 C75.8515805,1 75,1.87489085 75,2.95509509 L75,23.0463258 C75,24.1258196 75.8515805,25 76.9023125,25 C77.9547733,25 78.8053166,24.1258196 78.8053166,23.0463258 C78.8053166,23.0463258 78.8053166,16.9210242 78.8053166,15.87421 C79.8944268,15.87421 93.8447187,15.87421 93.8447187,15.87421 C96.325124,15.87421 97.8280961,15.4745948 99.0357983,14.4963369 C100.523903,13.2722711 101,11.7544439 101,8.25026271 L101,8.25026271 Z" id="Fill-11"></path>
                    <path d="M108.229186,16.1699644 L115.038696,4.64965702 L121.847502,16.1699644 L108.229186,16.1699644 Z M117.859266,1.95128905 C117.522628,1.38030453 116.905343,1 116.196151,1 L113.883354,1 C113.173458,1 112.55582,1.38030453 112.218126,1.95128905 L100.259405,22.1651259 C99.7333208,23.0548485 100.032632,24.2038537 100.929158,24.729455 C101.827444,25.2571671 102.978913,24.9637592 103.504292,24.0729811 L106.251266,19.4720351 L123.828239,19.4720351 L126.495983,24.0821281 C127.023476,24.9704435 128.174592,25.2652587 129.070765,24.7389538 C129.96553,24.2133526 130.266954,23.0615329 129.741575,22.1725139 L117.859266,1.95128905 L117.859266,1.95128905 Z" id="Fill-12"></path>
                </g>
            </g>
        </g>
    </g>
</svg>