<?xml version="1.0" encoding="UTF-8"?>
<svg width="190px" height="151px" viewBox="0 0 190 151" version="1.1" xmlns="http://www.w3.org/2000/svg" xmlns:xlink="http://www.w3.org/1999/xlink">
    <!-- Generator: Sketch 47.1 (45422) - http://www.bohemiancoding.com/sketch -->
    <title>logo-full</title>
    <desc>Created with Sketch.</desc>
    <defs></defs>
    <g id="Symbols" stroke="none" stroke-width="1" fill="none" fill-rule="evenodd">
        <g id="footer" transform="translate(-315.000000, -110.000000)" fill="#FFFFFF">
            <g id="FOOT">
                <g id="logo-full" transform="translate(315.000000, 110.000000)">
                    <path d="M90.00911,32.4619695 C92.4405884,32.4619695 94.7177438,33.3980224 96.5470058,35 C99.4783475,28.3763786 97.944243,16.0056822 92.2172367,4.17485067 C91.5130641,2.72986063 90.7692198,1.3201047 90.00911,0 C89.2279743,1.3201047 88.4936512,2.72986063 87.7787672,4.17485067 C82.0557281,16.0056822 80.5228138,28.3763786 83.4517752,35 C85.2786568,33.3980224 87.5601762,32.4619695 90.00911,32.4619695" id="Fill-1"></path>
                    <g id="Group-5" transform="translate(0.000000, 41.000000)">
                        <path d="M53.1363971,65.9442044 C59.2248971,70.2524891 64.6761176,71.0942555 88.9995441,71.0942555 C94.4507647,71.0942555 104.622618,70.9916204 107.664088,70.8858029 C118.141676,70.571135 124.124162,68.468708 128.739176,63.8473467 C133.034559,59.4304599 134.712132,53.548438 134.712132,42.5219343 L134.712132,2.58258394 C134.712132,1.37284307 133.734176,0.395821168 132.527515,0.395821168 L115.610426,0.395821168 C114.402971,0.395821168 113.426603,1.37284307 113.426603,2.58258394 L113.426603,38.6329416 C113.426603,47.4575657 112.383926,50.7176204 109.026397,52.498219 C106.407794,53.8642993 101.267471,54.2835912 87.5304265,54.2835912 C78.3011912,54.2835912 73.4816912,53.7580839 70.9623529,52.2897664 C67.0838824,50.188135 66.3544853,47.6688029 66.3544853,37.5815292 L66.3544853,2.58258394 C66.3544853,1.37284307 65.3749412,0.395821168 64.1686765,0.395821168 L47.2503971,0.395821168 C46.0453235,0.395821168 45.0681618,1.37284307 45.0681618,2.58258394 L45.0681618,38.1094234 C45.0681618,43.1488832 45.0681618,44.828438 45.1717941,46.8246496 C45.79875,57.0121715 48.0020294,62.2660511 53.1363971,65.9442044" id="Fill-2"></path>
                        <path d="M28.8070147,81.7324964 C27.60075,81.7324964 26.6223971,82.7115073 26.6223971,83.9204526 L26.6223971,100.691336 C26.6223971,102.989485 26.0720735,103.640701 25.4764853,104.003504 C24.3794118,104.702854 21.95775,104.926821 15.4968088,104.926821 C9.03507353,104.926821 6.61182353,104.702854 5.52547059,104.010664 C4.95211765,103.647861 4.36923529,102.971186 4.36923529,100.691336 L4.36923529,83.9204526 C4.36923529,82.7115073 3.39088235,81.7324964 2.18342647,81.7324964 C0.979544118,81.7324964 0,82.7115073 0,83.9204526 L0,99.8988978 C0,103.852734 0.196544118,105.050142 1.66129412,106.56381 C3.49213235,108.437894 6.33626471,108.924814 15.4968088,108.924814 C21.1560882,108.924814 24.3293824,108.72392 26.1129706,108.258482 C28.5441618,107.62835 29.9783382,106.419405 30.618,104.45104 C30.9193676,103.46288 30.9928235,102.570989 30.9928235,99.8988978 L30.9928235,83.9204526 C30.9928235,82.7115073 30.0108971,81.7324964 28.8070147,81.7324964" id="Fill-4"></path>
                    </g>
                    <path d="M66.8145643,123 C65.6090395,123 64.6291286,124.005956 64.6291286,125.248175 L64.6291286,146.116555 L42.5118199,124.065635 C42.113818,123.644204 41.5601107,123.38219 40.9444391,123.38219 L38.1862301,123.38219 C36.9795137,123.38219 36,124.388964 36,125.632 L36,148.751825 C36,149.994044 36.9795137,151 38.1862301,151 C39.3921521,151 40.3696798,149.994044 40.3696798,148.751825 L40.3696798,127.935358 L62.4913577,149.985051 C62.888168,150.406073 63.4442585,150.670131 64.0611218,150.670131 L66.8169475,150.670131 C68.0224723,150.670131 69,149.661314 69,148.420321 L69,125.248175 C69,124.005956 68.0224723,123 66.8145643,123" id="Fill-6"></path>
                    <path d="M77.0005454,123 C75.8959186,123 75,124.005956 75,125.248175 L75,148.751825 C75,149.994044 75.8959186,151 77.0005454,151 C78.1051723,151 79,149.994044 79,148.751825 L79,125.248175 C79,124.005956 78.1051723,123 77.0005454,123" id="Fill-7"></path>
                    <path d="M187.007651,129.500238 C185.65302,129.500238 184.594362,128.437479 184.594362,126.992861 C184.594362,125.57272 185.65302,124.499354 187.007651,124.499354 C188.346174,124.499354 189.403221,125.57272 189.403221,126.992861 C189.403221,128.437479 188.346174,129.500238 187.007651,129.500238 Z M187.007651,124 C185.377181,124 184,125.270007 184,126.992861 C184,128.7304 185.377181,130 187.007651,130 C188.622013,130 190,128.7304 190,126.992861 C190,125.270007 188.622013,124 187.007651,124 L187.007651,124 Z" id="Fill-8"></path>
                    <path d="M186.597949,126.315374 L186.597949,125.385522 L187.414479,125.385522 C187.831133,125.385522 188.274817,125.453784 188.274817,125.82622 C188.274817,126.286371 187.821345,126.315374 187.315209,126.315374 L186.597949,126.315374 Z M188.901662,125.853101 C188.901662,125.262438 188.438403,125 187.504428,125 L186,125 L186,128 L186.597949,128 L186.597949,126.699481 L187.285847,126.699481 L188.33121,128 L189,128 L187.875874,126.678614 C188.456579,126.624145 188.901662,126.390002 188.901662,125.853101 L188.901662,125.853101 Z" id="Fill-9"></path>
                    <path d="M169.88882,136.715356 C169.88882,136.715356 155.5126,136.715356 154.291956,136.715356 C154.291956,135.614016 154.291956,129.004781 154.291956,127.905839 C155.5126,127.905839 169.705079,127.905839 169.705079,127.905839 C174.825232,127.905839 175.596083,128.890091 175.596083,132.271235 C175.596083,135.767069 174.887649,136.715356 169.88882,136.715356 Z M180,132.423488 C180,129.573033 179.475306,127.564567 178.39393,126.286198 C176.954045,124.598224 175.028478,124 171.037684,124 L152.145588,124 C150.960053,124 150,124.984252 150,126.199482 L150,148.802116 C150,150.016547 150.960053,151 152.145588,151 C153.330343,151 154.291956,150.016547 154.291956,148.802116 C154.291956,148.802116 154.291956,141.650204 154.291956,140.465744 C155.515721,140.465744 170.594133,140.465744 170.594133,140.465744 C173.097839,140.465744 173.839822,140.759062 174.471015,141.378865 C174.942654,141.887575 175.227432,142.682809 175.227432,145.176808 L175.227432,148.802116 C175.227432,150.016547 176.188266,151 177.3738,151 C178.560115,151 179.520169,150.016547 179.520169,148.802116 L179.520169,143.43009 C179.520169,141.2382 178.798471,139.807578 177.254818,138.927226 C177.15222,138.864886 177.049231,138.820129 176.948584,138.76658 C177.198642,138.667476 177.438558,138.550389 177.690177,138.409724 C179.273231,137.467032 180,135.567261 180,132.423488 L180,132.423488 Z" id="Fill-10"></path>
                    <path d="M105.509834,136.829246 C105.509834,136.829246 91.6342505,136.829246 90.3907499,136.829246 C90.3907499,135.72391 90.3907499,129.009576 90.3907499,127.905839 C91.6382399,127.905839 106.117023,127.905839 106.117023,127.905839 C110.82932,127.905839 111.500339,128.851728 111.500339,132.347562 C111.500339,135.92132 110.911103,136.829246 105.509834,136.829246 Z M116,132.156546 C116,128.911271 115.521669,127.151765 114.296121,125.878991 C112.92855,124.423992 111.302464,124 107.062115,124 L88.194976,124 C86.9825929,124 86,124.984252 86,126.199482 L86,148.802116 C86,150.016547 86.9825929,151 88.194976,151 C89.4093538,151 90.3907499,150.016547 90.3907499,148.802116 C90.3907499,148.802116 90.3907499,141.911152 90.3907499,140.733486 C91.6474155,140.733486 107.743906,140.733486 107.743906,140.733486 C110.605912,140.733486 112.340111,140.283919 113.733613,139.183379 C115.450658,137.806305 116,136.098749 116,132.156546 L116,132.156546 Z" id="Fill-11"></path>
                    <path d="M121.326411,141.06621 L129.043855,128.105864 L136.760502,141.06621 L121.326411,141.06621 Z M132.240501,125.0702 C131.858979,124.427843 131.159388,124 130.355637,124 L127.734468,124 C126.929919,124 126.229929,124.427843 125.84721,125.0702 L112.293992,147.810767 C111.697764,148.811705 112.036983,150.104335 113.053045,150.695637 C114.071103,151.289313 115.376101,150.959229 115.971531,149.957104 L119.084768,144.781039 L139.005337,144.781039 L142.028781,149.967394 C142.626606,150.966749 143.931204,151.298416 144.946867,150.706323 C145.960934,150.115022 146.302548,148.819225 145.707118,147.819078 L132.240501,125.0702 L132.240501,125.0702 Z" id="Fill-12"></path>
                </g>
            </g>
        </g>
    </g>
</svg>